<svg xmlns="http://www.w3.org/2000/svg" width="1200" height="630" viewBox="0 0 1200 630">
  <defs>
    <linearGradient id="bg" x1="0" y1="0" x2="1" y2="1">
      <stop offset="0" stop-color="#071012"/>
      <stop offset="0.46" stop-color="#13211f"/>
      <stop offset="1" stop-color="#f4f0e7"/>
    </linearGradient>
    <linearGradient id="cyan" x1="0" y1="0" x2="1" y2="0">
      <stop offset="0" stop-color="#52e3d5"/>
      <stop offset="1" stop-color="#f4d35e"/>
    </linearGradient>
    <filter id="glow" x="-30%" y="-30%" width="160%" height="160%">
      <feGaussianBlur stdDeviation="5" result="blur"/>
      <feMerge><feMergeNode in="blur"/><feMergeNode in="SourceGraphic"/></feMerge>
    </filter>
  </defs>
  <rect width="100%" height="100%" fill="url(#bg)"/>
  <rect x="38" y="38" width="1124" height="554" rx="24" fill="none" stroke="#ffffff" stroke-opacity="0.16"/>
  <text x="78" y="96" font-family="Arial, Helvetica, sans-serif" font-size="25" font-weight="700" fill="#f4d35e" letter-spacing="6">LUMEN ARCHITECTURE</text>
  <text x="78" y="178.0" font-family="Arial, Helvetica, sans-serif" font-size="70" font-weight="800" fill="#ffffff" text-anchor="start">One core, many</text>
<text x="78" y="260.6" font-family="Arial, Helvetica, sans-serif" font-size="70" font-weight="800" fill="#ffffff" text-anchor="start">intraluminal tasks</text>
  <text x="82" y="390.0" font-family="Arial, Helvetica, sans-serif" font-size="31" font-weight="500" fill="#d8e5df" text-anchor="start">A slender device inside a soft tube: vessels, airways, bowel, ducts.</text>
<rect x="690" y="170" width="260" height="74" rx="18" fill="#071012" fill-opacity="0.72" stroke="#ff9b8f" stroke-opacity="0.75"/>
<text x="712" y="216" font-family="Arial, Helvetica, sans-serif" font-size="24" font-weight="700" fill="#ff9b8f">Procedural anatomy</text>
<rect x="820" y="280" width="260" height="74" rx="18" fill="#071012" fill-opacity="0.72" stroke="#52e3d5" stroke-opacity="0.75"/>
<text x="842" y="326" font-family="Arial, Helvetica, sans-serif" font-size="24" font-weight="700" fill="#52e3d5">Newton/Warp solver</text>
<rect x="725" y="392" width="260" height="74" rx="18" fill="#071012" fill-opacity="0.72" stroke="#f4d35e" stroke-opacity="0.75"/>
<text x="747" y="438" font-family="Arial, Helvetica, sans-serif" font-size="24" font-weight="700" fill="#f4d35e">Fluoro + labels</text>
<rect x="900" y="500" width="260" height="74" rx="18" fill="#071012" fill-opacity="0.72" stroke="#ffffff" stroke-opacity="0.75"/>
<text x="922" y="546" font-family="Arial, Helvetica, sans-serif" font-size="24" font-weight="700" fill="#ffffff">RL benchmark</text>

  <path d="M820 244 L820 280 M850 354 L850 392 M900 466 L900 500" stroke="#ffffff" stroke-opacity="0.35" stroke-width="4" stroke-linecap="round"/>
  <path d="M640 520 C735 470 798 424 850 354 C895 294 972 255 1110 225" fill="none" stroke="url(#cyan)" stroke-width="8" stroke-linecap="round" filter="url(#glow)"/>
  <circle cx="1110" cy="225" r="12" fill="#f4d35e" stroke="#fff7bd" stroke-width="5"/>
</svg>
