<svg xmlns="http://www.w3.org/2000/svg" width="1200" height="630" viewBox="0 0 1200 630">
  <defs>
    <linearGradient id="bg" x1="0" y1="0" x2="1" y2="1">
      <stop offset="0" stop-color="#071012"/>
      <stop offset="0.46" stop-color="#13211f"/>
      <stop offset="1" stop-color="#f4f0e7"/>
    </linearGradient>
    <linearGradient id="cyan" x1="0" y1="0" x2="1" y2="0">
      <stop offset="0" stop-color="#52e3d5"/>
      <stop offset="1" stop-color="#f4d35e"/>
    </linearGradient>
    <filter id="glow" x="-30%" y="-30%" width="160%" height="160%">
      <feGaussianBlur stdDeviation="5" result="blur"/>
      <feMerge><feMergeNode in="blur"/><feMergeNode in="SourceGraphic"/></feMerge>
    </filter>
  </defs>
  <rect width="100%" height="100%" fill="url(#bg)"/>
  <rect x="38" y="38" width="1124" height="554" rx="24" fill="none" stroke="#ffffff" stroke-opacity="0.16"/>
  <text x="78" y="96" font-family="Arial, Helvetica, sans-serif" font-size="25" font-weight="700" fill="#f4d35e" letter-spacing="6">LUMEN</text>
  <text x="78" y="178.0" font-family="Arial, Helvetica, sans-serif" font-size="70" font-weight="800" fill="#ffffff" text-anchor="start">The open simulator</text>
<text x="78" y="260.6" font-family="Arial, Helvetica, sans-serif" font-size="70" font-weight="800" fill="#ffffff" text-anchor="start">for endovascular AI</text>
  <text x="82" y="390.0" font-family="Arial, Helvetica, sans-serif" font-size="31" font-weight="500" fill="#d8e5df" text-anchor="start">Deformable vessel wall. GPU-parallel physics.</text>
<text x="82" y="426.6" font-family="Arial, Helvetica, sans-serif" font-size="31" font-weight="500" fill="#d8e5df" text-anchor="start">Safety-scored RL. CV-ready synthetic fluoro.</text>

  <path d="M690 224 C780 220 805 276 880 286 C965 298 1015 245 1110 232" fill="none" stroke="#ef746f" stroke-width="16" stroke-linecap="round" opacity="0.52"/>
  <path d="M690 224 C780 220 805 276 880 286 C965 298 1015 245 1110 232" fill="none" stroke="#ff9b8f" stroke-width="5" stroke-linecap="round"/>
  <path d="M705 230 C776 240 817 302 898 320 C980 338 1030 294 1122 280" fill="none" stroke="#ef746f" stroke-width="13" stroke-linecap="round" opacity="0.45"/>
  <path d="M705 230 C776 240 817 302 898 320 C980 338 1030 294 1122 280" fill="none" stroke="#ff9b8f" stroke-width="4" stroke-linecap="round"/>
  <path d="M642 245 C723 241 790 250 848 288" fill="none" stroke="url(#cyan)" stroke-width="7" stroke-linecap="round" filter="url(#glow)"/>
  <circle cx="848" cy="288" r="11" fill="#f4d35e" stroke="#fff7bd" stroke-width="5"/>
  <circle cx="642" cy="245" r="8" fill="#52e3d5"/>
  <text x="82" y="560" font-family="Arial, Helvetica, sans-serif" font-size="24" fill="#eff7f4">github.com/SeldingerMed/seldinger-lumen</text>
</svg>
