<svg xmlns="http://www.w3.org/2000/svg" width="1080" height="1080" viewBox="0 0 1080 1080">
  <defs>
    <linearGradient id="bg" x1="0" y1="0" x2="1" y2="1">
      <stop offset="0" stop-color="#071012"/>
      <stop offset="0.46" stop-color="#13211f"/>
      <stop offset="1" stop-color="#f4f0e7"/>
    </linearGradient>
    <linearGradient id="cyan" x1="0" y1="0" x2="1" y2="0">
      <stop offset="0" stop-color="#52e3d5"/>
      <stop offset="1" stop-color="#f4d35e"/>
    </linearGradient>
    <filter id="glow" x="-30%" y="-30%" width="160%" height="160%">
      <feGaussianBlur stdDeviation="5" result="blur"/>
      <feMerge><feMergeNode in="blur"/><feMergeNode in="SourceGraphic"/></feMerge>
    </filter>
  </defs>
  <rect width="100%" height="100%" fill="url(#bg)"/>
  <rect x="38" y="38" width="1004" height="1004" rx="24" fill="none" stroke="#ffffff" stroke-opacity="0.16"/>
  <text x="78" y="96" font-family="Arial, Helvetica, sans-serif" font-size="25" font-weight="700" fill="#f4d35e" letter-spacing="6">LAUNCH</text>
  <text x="78" y="178.0" font-family="Arial, Helvetica, sans-serif" font-size="70" font-weight="800" fill="#ffffff" text-anchor="start">Lumen</text>
  <text x="82" y="390.0" font-family="Arial, Helvetica, sans-serif" font-size="31" font-weight="500" fill="#d8e5df" text-anchor="start">Open, differentiable, GPU-parallel</text>
<text x="82" y="426.6" font-family="Arial, Helvetica, sans-serif" font-size="31" font-weight="500" fill="#d8e5df" text-anchor="start">simulation for endovascular AI.</text>

  <path d="M155 705 C300 690 375 590 520 610 C675 632 720 830 930 790" fill="none" stroke="#ef746f" stroke-width="30" stroke-linecap="round" opacity="0.45"/>
  <path d="M155 705 C300 690 375 590 520 610 C675 632 720 830 930 790" fill="none" stroke="#ff9b8f" stroke-width="8" stroke-linecap="round"/>
  <path d="M145 705 C315 700 410 666 525 626" fill="none" stroke="url(#cyan)" stroke-width="12" stroke-linecap="round" filter="url(#glow)"/>
  <circle cx="525" cy="626" r="20" fill="#f4d35e" stroke="#fff7bd" stroke-width="8"/>
  <text x="82" y="970" font-family="Arial, Helvetica, sans-serif" font-size="32" fill="#eff7f4">seldingermed.github.io/seldinger-lumen</text>
</svg>
